{"title":"Fantastic.Four.2015.HC.HDRip.x264-MenaceIISociety","uid":12387510,"size":738847560,"categoryP":"video","categoryS":"movies","magnet":"?xt=urn:btih:a0883c22ae4101b81da4fcec63b3154d003f4869&amp;dn=Fantastic.Four.2015.HC.HDRip.x264-MenaceIISociety&amp;tr=udp%3A%2F%2Ftracker.openbittorrent.com%3A80&amp;tr=udp%3A%2F%2Fopen.demonii.com%3A1337&amp;tr=udp%3A%2F%2Ftracker.coppersurfer.tk%3A6969&amp;tr=udp%3A%2F%2Fexodus.desync.com%3A6969","seeders":0,"leechers":0,"uploader":"TvTeam","files":4,"time":1441847330,"description":"------------------------------------------------------------------------\n\n &lt;a href=&quot; https://www.torrenting.com&quot; rel=&quot;nofollow&quot; target=&quot;_NEW&quot;&gt; https://www.torrenting.com&lt;/a&gt;\n\nSign up is OPEN - for time being. Come and have fun\n\n.......................................................................................................................[center][img]http://s15.postimg.org/smb8pz261/folder.png[/img]\n\nFantastic.Four.2015.HC.HDRip.x264-MenaceIISociety &lt;a href=&quot;\nhttp://www.imdb.com/title/tt1502712/&quot; rel=&quot;nofollow&quot; target=&quot;_NEW&quot;&gt;\nhttp://www.imdb.com/title/tt1502712/&lt;/a&gt;\n\nSource: HC.1080p.HDRip.X264.AC3-EVO [THANKS]\n\nNOTE: adjusted some gamma, gain, saturation, a few more adjustments, enjoy :) [url]http://screenshotcomparison.com/comparison/142101/picture:1[/url]\n\nGeneral\nComplete name                            : Fantastic.Four.2015.HC.HDRip.x264-MenaceIISociety.mp4\nFormat                                   : MPEG-4\nFormat profile                           : Base Media\nCodec ID                                 : isom\nFile size                                : 689 MiB\nDuration                                 : 1h 39mn\nOverall bit rate mode                    : Variable\nOverall bit rate                         : 964 Kbps\nEncoded date                             : UTC 2015-09-09 22:32:39\nTagged date                              : UTC 2015-09-09 22:32:39\n\nVideo\nID                                       : 1\nFormat                                   : AVC\nFormat/Info                              : Advanced Video Codec\nFormat profile                           : &lt;a class=&quot;__cf_email__&quot; href=&quot;/cdn-cgi/l/email-protection&quot; data-cfemail=&quot;99d1f0fef1d9d5adb7a8&quot;&gt;[email&amp;#160;protected]&lt;/a&gt;&lt;script data-cfhash='f9e31' type=&quot;text/javascript&quot;&gt;\n/* &lt;![CDATA[ */!function(){try{var t=&quot;currentScript&quot;in document?document.currentScript:function(){for(var t=document.getElementsByTagName(&quot;script&quot;),e=t.length;e--;)if(t[e].getAttribute(&quot;data-cfhash&quot;))return t[e]}();if(t&amp;&amp;t.previousSibling){var e,r,n,i,c=t.previousSibling,a=c.getAttribute(&quot;data-cfemail&quot;);if(a){for(e=&quot;&quot;,r=parseInt(a.substr(0,2),16),n=2;a.length-n;n+=2)i=parseInt(a.substr(n,2),16)^r,e+=String.fromCharCode(i);e=document.createTextNode(e),c.parentNode.replaceChild(e,c)}t.parentNode.removeChild(t);}}catch(u){}}()/* ]]&gt; */&lt;/script&gt;\nFormat settings, CABAC                   : Yes\nFormat settings, ReFrames                : 3 frames\nCodec ID                                 : avc1\nCodec ID/Info                            : Advanced Video Coding\nDuration                                 : 1h 39mn\nBit rate mode                            : Variable\nBit rate                                 : 866 Kbps\nMaximum bit rate                         : 40.0 Mbps\nWidth                                    : 720 pixels\nHeight                                   : 400 pixels\nDisplay aspect ratio                     : 16:9\nFrame rate mode                          : Constant\nFrame rate                               : 24.000 fps\nColor space                              : YUV\nChroma subsampling                       : 4:2:0\nBit depth                                : 8 bits\nScan type                                : Progressive\nBits/(Pixel*Frame)                       : 0.125\nStream size                              : 619 MiB (90%)\nWriting library                          : x264 core 148 r2597 e86f3a1\n\nAudio\nID                                       : 2\nFormat                                   : AAC\nFormat/Info                              : Advanced Audio Codec\nFormat profile                           : LC\nCodec ID                                 : 40\nDuration                                 : 1h 39mn\nBit rate mode                            : Variable\nBit rate                                 : 93.6 Kbps\nMaximum bit rate                         : 122 Kbps\nChannel(s)                               : 2 channels\nChannel positions                        : Front: L R\nSampling rate                            : 48.0 KHz\nCompression mode                         : Lossy\nStream size                              : 66.9 MiB (10%)\nLanguage                                 : English\nEncoded date                             : UTC 2015-09-09 21:00:10\nTagged date                              : UTC 2015-09-09 22:33:17\n\n[img]http://s11.postimg.org/pdwsh7wyr/image.jpg[/img]\n[img]http://s11.postimg.org/f54bbe8wz/image.jpg[/img]\n[img]http://s11.postimg.org/mqbxkltb7/image.jpg[/img]\n[img]http://s11.postimg.org/neks3js0z/image.jpg[/img]\n[img]http://s11.postimg.org/3u1nn121v/image.jpg[/img]\n[img]http://s11.postimg.org/u3mq5tnz7/image.jpg[/img]\n[img]http://s11.postimg.org/3za0afyqr/image.jpg[/img]\n[img]http://s11.postimg.org/iwihbgbz7/image.jpg[/img] \n \n[img]http://s17.postimg.org/r1iiyw8yn/Untitled_1.png[/img][/center]","torrent":{"xt":"urn:btih:a0883c22ae4101b81da4fcec63b3154d003f4869","amp;dn":"Fantastic.Four.2015.HC.HDRip.x264-MenaceIISociety","amp;tr":["udp%3A%2F%2Ftracker.openbittorrent.com%3A80","udp%3A%2F%2Fopen.demonii.com%3A1337","udp%3A%2F%2Ftracker.coppersurfer.tk%3A6969","udp%3A%2F%2Fexodus.desync.com%3A6969"],"infoHash":"a0883c22ae4101b81da4fcec63b3154d003f4869","infoHashBuffer":{"type":"Buffer","data":[160,136,60,34,174,65,1,184,29,164,252,236,99,179,21,77,0,63,72,105]},"announce":[],"urlList":[]}}